<?xml version="1.0" encoding="utf-8"?>
<!-- Generator: Adobe Illustrator 23.1.0, SVG Export Plug-In . SVG Version: 6.00 Build 0)  -->
<svg version="1.1" id="Слой_1" xmlns="http://www.w3.org/2000/svg" xmlns:xlink="http://www.w3.org/1999/xlink" x="0px" y="0px"
	 viewBox="0 0 733 264" enable-background="new 0 0 733 264" xml:space="preserve">
<text id="EAlyoshina" transform="matrix(0.9397 0 0 1 1169.0869 136.0293)" font-family="'FreestyleScript-Regular'" font-size="265.8443px">EAlyoshina</text>
<text id="EAlyoshina_1_" transform="matrix(0.9397 0 0 1 13.2688 192.4127)" display="none"><tspan x="0" y="0" display="inline" fill="#2130FF" font-family="'FreestyleScript-Regular'" font-size="265.8443px">E</tspan><tspan x="104.754" y="0" display="inline" fill="#E92D46" font-family="'FreestyleScript-Regular'" font-size="265.8443px">Alyoshina</tspan></text>
<g>
	<path fill="#2130FF" d="M68.3403,83.9448l4.8789-0.9087c17.9702-3.6343,30.4937-5.4517,37.5684-5.4517
		c5.1226,0,7.6841,2.2065,7.6841,6.6201c0,2.7705-1.0176,4.6304-3.0493,5.5815c-1.3838,0.6938-3.7412,1.126-7.0747,1.2983
		c-21.0615,1.3853-37.0801,4.0239-48.0576,7.918c-4.311,6.8374-10.6118,19.6011-18.9063,38.2935
		c-4.7988,10.9033-8.5381,20.9854-11.2212,30.2451c1.8696-0.6924,3.6992-1.3838,5.4888-2.0771
		c12.0332-4.3262,20.8975-7.1396,26.5903-8.4375c7.5625-1.5576,14.6768-2.3369,21.3452-2.3369c4.3911,0,7.6426,0.5645,9.7583,1.6875
		c1.8696,0.9531,2.8052,2.7705,2.8052,5.4521c0,2.6836-1.1396,4.458-3.415,5.3223c-1.0581,0.3467-3.5796,0.5635-7.5625,0.6484
		c-21.5493,1.2129-40.7393,6.8379-57.5718,16.875c-2.1958,1.2979-4.0674,1.9473-5.6108,1.9473c-2.2778,0-4.311-1.2529-6.0986-3.7646
		c-1.5439-2.0762-2.3179-4.1963-2.3179-6.3604c0-2.1621,2.5615-10.125,7.6846-23.8848
		c7.7246-20.8535,18.2544-43.6997,31.5913-68.5376c3.9834-7.5288,11.5454-20.2051,22.687-38.0332
		c2.5195-4.1538,4.959-8.2207,7.3188-12.2021c-3.2534-0.8638-4.8794-3.1577-4.8794-6.8794c0-2.7686,1.2998-4.8032,3.9033-6.1011
		c4.2271-2.0767,12.3594-4.1094,24.395-6.1011c17.9702-2.9409,33.2168-4.4131,45.7402-4.4131
		c7.0747,0,10.6118,1.9917,10.6118,5.9707c0,2.771-1.2197,5.1074-3.6592,7.0098c-1.2197,0.9531-3.1714,1.4277-5.855,1.4277
		c-0.1636,0-1.0977-0.0425-2.8052-0.1299c-1.2197,0-2.5615,0-4.0254,0c-5.8545,0-14.313,0.6494-25.3706,1.9473
		c-9.5957,1.126-17.8501,2.7705-24.7607,4.9326c0.812,1.2983,1.2197,2.3364,1.2197,3.1152c0,1.4727-1.9116,4.8477-5.7329,10.125
		l-5.8545,9.606C77.4063,67.5039,71.5918,77.3696,68.3403,83.9448z"/>
	<path fill="#E92D46" d="M193.8516,108.3486c-18.46,3.894-33.9087,8.4819-46.3501,13.7598
		c-7.4824,11.6826-15.6948,25.7012-24.6387,42.0576l-6.4648,12.0713c-1.1396,2.1641-2.8853,5.2803-5.2446,9.3467
		c-2.6016,4.7578-5.3252,7.1387-8.1724,7.1387c-1.5439,0-2.8457-0.6484-3.9033-1.9463c-1.0557-1.124-1.5854-2.3799-1.5854-3.7646
		c0-2.4219,3.0493-9.3018,9.1479-20.6396c3.3354-6.1436,8.3745-14.8408,15.125-26.0908c2.6011-4.3262,4.6748-7.874,6.2207-10.6445
		c-4.8794,1.4727-9.3521,3.1602-13.4175,5.0625c-1.9517,0.9531-3.5771,1.4277-4.8789,1.4277c-1.6255,0-2.8853-0.7783-3.7813-2.3359
		c-0.6499-0.9512-0.9756-2.0771-0.9756-3.375c0-2.9414,0.9756-5.0176,2.9272-6.2305c3.1714-2.0771,8.8623-4.4561,17.0762-7.1396
		c6.0991-2.0771,10.936-3.9795,14.5151-5.7119c1.7075-2.249,6.1787-8.8691,13.417-19.8604
		c3.0894-4.7583,11.8716-16.0088,26.3467-33.7495c10.4077-12.981,21.1416-25.0527,32.2012-36.2163
		c6.4229-6.5752,11.3438-9.8652,14.7588-9.8652c2.1138,0,3.9434,0.9087,5.4888,2.7261c1.2998,1.645,1.9517,3.4619,1.9517,5.4517
		c0,2.4238-1.1396,6.665-3.415,12.7212c-3.9033,10.644-7.6445,22.0244-11.2217,34.1392
		c-3.0913,10.7314-5.165,18.9517-6.2207,24.6631c1.4634,0,2.4395-0.0425,2.9272-0.1294c2.3574-0.0854,4.3091-0.1299,5.855-0.1299
		c4.7148,0,7.0742,1.9043,7.0742,5.7114c0,1.645-0.5088,3.2676-1.5244,4.8677c-1.0181,1.6025-2.1768,2.5757-3.4766,2.9209
		c-0.4878,0.1743-1.8296,0.2593-4.0249,0.2593c-4.6353,0-8.0923,0.3042-10.3677,0.9087c-1.9517,6.1455-5.043,21.8521-9.2705,47.1196
		c-2.1953,16.79-3.2529,27.0869-3.1709,30.8945c0,6.2305-1.75,9.3457-5.2451,9.3457c-2.7651,0-4.9209-1.5146-6.4648-4.543
		c-1.1396-2.0771-1.7075-4.8877-1.7075-8.4375c0-11.9424,1.9917-28.0381,5.9771-48.2881
		C191.3701,121.6338,192.876,113.8008,193.8516,108.3486z M197.2671,94.3296c0.7319-2.5088,2.6016-9.2163,5.6108-20.1201
		c0.7319-2.856,2.6016-8.5225,5.6108-17.0049c3.0073-8.7393,5.4067-15.749,7.1963-21.0283
		c-5.2866,3.7217-10.6538,8.6543-16.1006,14.7979c-19.1919,21.9819-32.731,39.938-40.6172,53.8696
		c3.0073-0.7788,9.4717-2.7256,19.3936-5.8413C181.2065,98.1387,187.5093,96.5811,197.2671,94.3296z"/>
	<path fill="#E92D46" d="M238.7383,136.9063c-2.4395,6.75-4.269,12.2021-5.4888,16.3555c-1.2197,4.1543-1.8296,7.0547-1.8296,8.6973
		c0,2.1641,0.9756,3.2451,2.9272,3.2451c2.9277,0,6.7085-2.9414,11.3438-8.8271c2.1953-2.8555,5.4468-8.0029,9.7578-15.4473
		c1.7075-2.9404,3.4956-4.4131,5.3672-4.4131c2.1133,0,3.1709,1.083,3.1709,3.2451c0,3.7217-4.0249,11.251-12.0752,22.5869
		c-8.3765,11.8564-16.1426,17.7832-23.2974,17.7832c-3.0894,0-5.6104-1.3828-7.562-4.1543
		c-1.3818-1.9893-2.0737-4.4131-2.0737-7.2686c0-4.8457,1.3838-11.5527,4.147-20.1201c2.7637-8.5674,6.8706-18.9941,12.3193-31.2837
		c13.9854-31.2388,28.2563-56.9849,42.813-77.2349c11.6279-16.2686,21.2637-24.4038,28.9082-24.4038
		c2.4395,0,4.4312,0.9961,5.9766,2.9858c1.626,1.9917,2.4395,4.2832,2.4395,6.8794c0,12.1167-10.1655,32.2793-30.4937,60.4902
		c-9.1079,12.5488-20.0034,25.0972-32.689,37.644C249.0645,126.9561,244.5112,131.3691,238.7383,136.9063z M247.3984,116.2671
		c16.9126-15.4028,32.0376-34.8735,45.3745-58.4131c6.9106-12.2021,10.3677-20.2925,10.3677-24.2739
		c0-1.9028-0.7734-2.856-2.3174-2.856c-4.4731,0-12.6055,9.4761-24.395,28.4277
		C266.6704,74.7285,256.9927,93.7676,247.3984,116.2671z"/>
	<path fill="#E92D46" d="M316.1919,143.6563c-7.2383,9.0859-13.0112,15.8359-17.3203,20.25
		c-8.5386,8.6543-15.6548,12.9805-21.3457,12.9805c-2.7632,0-4.959-1.0811-6.5864-3.2451
		c-1.2197-1.7305-1.8296-3.8945-1.8296-6.4902c0-9.3467,5.2046-21.7627,15.6128-37.2549
		c10.5698-15.749,18.2139-23.6245,22.9312-23.6245c1.2998,0,2.4395,0.6064,3.415,1.8169c0.894,0.9536,1.3418,2.0771,1.3418,3.375
		c0,1.9048-0.4688,3.5698-1.4028,4.9976c-0.9355,1.4282-3.5981,4.6079-7.9893,9.5405c-4.6348,5.1074-8.9043,10.6445-12.8071,16.6152
		c-4.4731,6.75-6.7085,11.6826-6.7085,14.7988c0,1.8174,0.8115,2.7256,2.4395,2.7256c3.251,0,9.3501-4.7158,18.2959-14.1494
		c5.6108-5.9707,10.002-10.9883,13.1733-15.0576c0.6499-0.8633,3.4951-4.9746,8.5381-12.3311
		c4.5532-6.4902,7.3584-10.3398,8.416-11.5527c2.4399-3.0283,4.7153-4.5435,6.8306-4.5435c1.2998,0,2.4795,0.6064,3.5376,1.8174
		c0.9756,1.1255,1.4634,2.4238,1.4634,3.894c0,2.5112-1.6274,6.7075-4.8789,12.5918c-3.9028,7.1836-7.4824,13.8887-10.7334,20.1191
		c-5.123,9.6934-9.0684,18.3477-11.8315,25.9619c5.2026-3.2002,9.96-7.1396,14.271-11.8125
		c7.3184-7.7881,11.7896-13.585,13.417-17.3945c1.5439-3.46,3.1294-5.1914,4.7568-5.1914c2.2759,0,3.4155,1.2129,3.4155,3.6338
		c0,4.5879-3.6592,11.4238-10.9775,20.5098c-8.7822,10.9043-19.5981,20.165-32.4453,27.7783
		c-6.8306,17.4795-13.2954,31.9756-19.394,43.4854c-11.3853,21.2012-23.1333,31.8027-35.2505,31.8027
		c-4.959,0-8.9443-2.0342-11.9536-6.1006c-2.3574-3.1152-3.5371-7.0547-3.5371-11.8125c0-13.5,8.9043-27.3037,26.7124-41.4082
		c5.2046-4.1543,12.9292-9.3467,23.1753-15.5771c4.147-2.5088,7.3984-4.543,9.7578-6.1006
		c1.4634-3.9795,3.6992-9.2588,6.7085-15.8369C310.7432,155.7725,313.6704,149.3672,316.1919,143.6563z M293.7485,194.6699
		c-8.6201,4.6729-17.4424,11.3359-26.4683,19.9902c-9.1064,8.9121-13.6611,17.2197-13.6611,24.9229
		c0,1.6436,0.4478,3.0283,1.3418,4.1543c1.2197,1.5576,2.8052,2.3359,4.7568,2.3359c6.0986,0,12.8491-6.7939,20.2476-20.3789
		c1.2197-2.252,4.5532-9.7354,10.002-22.457C291.105,200.6416,292.3647,197.7852,293.7485,194.6699z"/>
	<path fill="#E92D46" d="M403.77,96.2769c6.666,0,10.002,4.3281,10.002,12.9805c0,11.5103-5.001,26.0913-15.0029,43.7446
		c-10.8979,19.127-21.4277,28.6875-31.5918,28.6875c-4.7148,0-8.1719-2.3369-10.3677-7.0098
		c-1.1377-2.3359-1.7075-5.1475-1.7075-8.4375c0-11.0762,3.5791-23.1055,10.7339-36.0859
		c6.6665-12.0273,14.5146-21.3735,23.541-28.0381C394.6616,98.2236,399.4585,96.2769,403.77,96.2769z M391.0845,145.3438
		c-2.0337-1.7305-3.0493-3.0713-3.0493-4.0244c0-0.6914,1.2998-2.5957,3.9033-5.7109c7.3184-8.7402,10.9771-15.792,10.9771-21.1587
		c0-0.6919-0.2041-1.3833-0.6094-2.0771c-0.6519-1.2979-1.6675-1.9468-3.0493-1.9468c-2.6035,0-6.4248,2.6831-11.4658,8.0479
		c-6.5063,6.9248-11.4653,14.0635-14.8809,21.418c-3.9849,8.3945-5.9766,15.3623-5.9766,20.8994
		c0,1.4717,0.3657,2.7705,1.0977,3.8936c1.0557,1.5576,2.3975,2.3369,4.0254,2.3369c3.9028,0,8.0903-3.1152,12.563-9.3467
		c1.9517-2.5957,3.5376-5.2773,4.7573-8.0479C390.5967,146.8584,391.1646,145.4307,391.0845,145.3438z"/>
	<path fill="#E92D46" d="M470.6118,93.8105c5.041,0,8.8213,0.9531,11.3428,2.8555c2.5195,1.9048,3.7813,4.8027,3.7813,8.6973
		c0,5.1069-1.7891,10.0396-5.3662,14.7979c-3.416,4.501-8.5381,8.1348-15.3691,10.9033c-3.7412,1.4727-6.8721,2.207-9.3916,2.207
		c-3.416,0-5.123-1.6006-5.123-4.8027c0-2.1621,0.9756-3.8066,2.9268-4.9326c0.4883-0.2598,3.252-0.9941,8.2949-2.207
		c3.0068-0.6914,5.7725-2.2061,8.2939-4.543c2.1953-1.9897,3.293-4.1538,3.293-6.4902c0-1.8174-0.4873-3.1582-1.4629-4.0239
		c-0.9766-0.8643-2.4395-1.2983-4.3916-1.2983c-4.7168,0-9.9219,2.0342-15.6123,6.1011c-6.5869,4.5879-9.8799,10.0396-9.8799,16.356
		c0,4.5,2.1533,10.125,6.4639,16.874c4.7979,7.3564,7.1973,13.5879,7.1973,18.6924c0,7.6162-3.1719,13.5869-9.5146,17.9141
		c-3.9033,2.6826-8.3359,4.0234-13.2949,4.0234c-7.8066,0-13.7412-2.9854-17.8086-8.957
		c-2.8447-4.2383-4.2686-9.2588-4.2686-15.0566c0-6.75,1.6279-12.417,4.8789-17.0049c2.1152-3.0283,4.3105-4.5439,6.5869-4.5439
		c2.0313,0,3.0488,0.8662,3.0488,2.5967c0,0.6934-0.3662,1.7324-1.0977,3.1152c-1.8711,3.7217-2.8057,8.0928-2.8057,13.1104
		c0,4.2412,1.4219,7.833,4.2695,10.7744c2.5195,2.5957,5.4072,3.8936,8.6602,3.8936c3.1709,0,5.6504-1.123,7.4404-3.375
		c1.4639-1.9023,2.1953-4.3262,2.1953-7.2686c0-3.6348-1.9512-8.3506-5.8545-14.1494c-5.3672-7.9609-8.0508-15.1875-8.0508-21.6777
		c0-8.6523,4.4316-16.311,13.2959-22.9756C451.9077,97.0127,461.0151,93.8105,470.6118,93.8105z"/>
	<path fill="#E92D46" d="M507.814,126.9111c6.0166-6.6631,12.0332-12.2446,18.0518-16.7451
		c7.7246-5.7114,13.2539-8.5674,16.5889-8.5674c1.3818,0,2.7236,0.6064,4.0254,1.8174c1.4629,1.3853,2.1953,2.9854,2.1953,4.8027
		c0,2.3364-1.75,5.9712-5.2451,10.9043c-6.75,9.5205-11.873,18.1729-15.3691,25.9609c-3.0908,6.75-4.6348,11.3379-4.6348,13.7598
		c0,2.3359,1.0557,3.5049,3.1719,3.5049c4.3906,0,11.7891-8.3076,22.1992-24.9229c2.1133-3.375,4.0254-5.0625,5.7324-5.0625
		c1.708,0,2.5615,1.0381,2.5615,3.1152c0,3.375-3.0908,9.8223-9.2695,19.3408c-5.3672,8.3076-10.9785,14.668-16.833,19.082
		c-4.1475,3.0303-7.8887,4.543-11.2217,4.543c-3.4971,0-6.0186-1.6006-7.5625-4.8027c-0.9756-1.9902-1.4639-4.1963-1.4639-6.6201
		c0-7.7012,2.5615-16.4854,7.6846-26.3506c1.2197-2.3369,4.8789-9,10.9775-19.9902c-16.5879,8.9141-30.6152,28.168-42.0811,57.7637
		c-1.0576,3.375-2.6836,5.0625-4.8789,5.0625c-1.5439,0-2.8047-0.5615-3.7813-1.6875c-0.9756-1.2109-1.4639-2.6816-1.4639-4.4131
		c0-2.8564,2.6035-10.9463,7.8066-24.2744c9.6758-24.748,18.7021-45.6919,27.0781-62.8262
		c8.375-17.3071,17.6865-35.2632,27.9326-53.8701c2.4395-4.4985,4.3486-7.5288,5.7324-9.0864
		c1.3818-1.5576,2.8457-2.3364,4.3916-2.3364c1.4629,0,2.7227,0.8232,3.7813,2.4663c0.8115,1.2129,1.2197,2.5962,1.2197,4.1538
		c0,2.4238-1.3018,5.6689-3.9033,9.7354c-8.7822,14.4531-17.5244,30.3325-26.2246,47.6392
		C515.6597,107.5273,509.9272,120.1611,507.814,126.9111z"/>
	<path fill="#E92D46" d="M588.1948,102.2476c1.3818,0,2.5195,0.564,3.415,1.6875c0.6504,0.9536,0.9756,1.9048,0.9756,2.856
		c0,1.5576-1.1797,4.1538-3.5371,7.7886c-8.458,13.9341-14.4746,25.3989-18.0518,34.3989
		c-3.8232,9.2607-7.1963,18.7793-10.124,28.5576c-1.2998,4.3281-3.333,6.4902-6.0986,6.4902c-1.626,0-2.9277-0.6924-3.9033-2.0771
		c-0.8936-1.124-1.3418-2.3369-1.3418-3.6348c0-2.5957,2.6035-11.248,7.8066-25.9609
		c4.0674-11.5957,10.6514-24.4043,19.7598-38.4233c2.9277-4.5854,5.123-7.6582,6.5869-9.2163
		C585.145,103.0713,586.6489,102.2476,588.1948,102.2476z M611.3696,54.0894c3.6592,0,5.4893,1.9917,5.4893,5.9712
		c0,3.6348-1.79,7.6587-5.3672,12.0723c-3.415,4.2407-6.708,6.3604-9.8799,6.3604c-1.5459,0-2.8057-0.6045-3.7813-1.8174
		c-0.9756-1.1235-1.4639-2.5088-1.4639-4.1538c0-4.1538,2.1543-8.5674,6.4648-13.2402
		C606.0034,55.8213,608.8481,54.0894,611.3696,54.0894z"/>
	<path fill="#E92D46" d="M611.7358,135.4785c1.0557-1.0391,2.0732-2.0771,3.0488-3.1152
		c16.9941-17.6543,28.3779-26.481,34.1533-26.481c3.1709,0,4.7568,1.8618,4.7568,5.5815c0,2.5962-1.4238,5.6689-4.2695,9.2168
		c-15.5322,19.2979-23.2969,36.3027-23.2969,51.0137c0,4.7607,1.2197,9.3037,3.6592,13.6299
		c1.1377,1.9912,1.708,3.5488,1.708,4.6729c0,1.0381-0.4883,2.0322-1.4639,2.9854c-1.0576,1.2109-2.3174,1.8174-3.7813,1.8174
		c-3.335,0-6.1406-2.251-8.416-6.75c-2.1963-4.2383-3.2939-9.3887-3.2939-15.4463c0-11.6826,4.1475-24.6191,12.4414-38.8125
		c-11.0596,7.5283-21.3457,20.8564-30.8594,39.9805c-2.4395,4.5879-5.041,6.8799-7.8066,6.8799
		c-1.3818,0-2.5195-0.5195-3.415-1.5576c-1.1377-1.2109-1.707-2.7686-1.707-4.6738c0-4.6729,5-16.917,15.002-36.7354
		c5.3672-10.7285,9.5947-18.5176,12.6855-23.3647c3.0898-4.7583,5.7334-7.1396,7.9287-7.1396c1.0557,0,2.0732,0.5195,3.0488,1.5581
		c1.1377,1.2129,1.708,2.5957,1.708,4.1538c0,1.9043-1.1797,4.6304-3.5371,8.1772
		C616.6147,126.3496,613.8491,131.1523,611.7358,135.4785z"/>
	<path fill="#E92D46" d="M689.311,158.584c-2.6836,5.0195-5.3271,9.2607-7.9287,12.7207c-5.123,6.75-10.2061,10.125-15.2471,10.125
		c-4.3906,0-7.8057-2.2061-10.2451-6.6201c-1.5439-2.8555-2.3174-6.2305-2.3174-10.125c0-9.6055,2.8467-20.2051,8.5381-31.8027
		c6.3428-12.8936,13.9844-22.8013,22.9307-29.7256c5.8555-4.4985,11.5059-6.75,16.9551-6.75c3.415,0,6.2607,1.126,8.5381,3.375
		c1.9512,1.9917,2.9268,4.2412,2.9268,6.75c0,1.9048-0.6914,4.5435-2.0732,7.9185c1.2197,1.8174,1.8301,3.4194,1.8301,4.8022
		c0,1.8174-1.1406,4.8037-3.416,8.957c-2.3594,4.2412-4.7168,9.8652-7.0742,16.875c-2.5215,7.4434-3.7813,13.415-3.7813,17.9131
		c0,3.6348,1.0156,6.6201,3.0498,8.957c0.5674,0.6064,2.2354,1.6025,5.001,2.9854c2.0313,1.0381,3.0488,2.8555,3.0488,5.4521
		c0,1.6445-0.5693,2.9854-1.708,4.0234c-1.2197,1.126-2.6426,1.6875-4.2686,1.6875c-4.3916,0-8.1729-2.0762-11.3438-6.2305
		c-2.6035-3.375-3.9033-7.6143-3.9033-12.7207C688.8228,165.4209,688.9849,162.5654,689.311,158.584z M704.5571,115.8774
		c-0.9756-1.9023-2.0332-3.3101-3.1709-4.2188c-1.1396-0.9087-2.3594-1.3628-3.6592-1.3628c-6.1807,0-12.8896,5.7559-20.126,17.2646
		c-7.9697,12.7207-11.9531,23.4941-11.9531,32.3213c0,2.1641,0.3848,3.8096,1.1582,4.9326c0.7725,1.126,1.9307,1.6875,3.4766,1.6875
		c3.9033,0,8.4561-4.4131,13.6611-13.2402c2.9277-4.8457,6.5449-11.9844,10.8555-21.418c2.8457-6.1436,4.9189-10.21,6.2207-12.2021
		C701.6704,118.6035,702.8501,117.3501,704.5571,115.8774z"/>
</g>
</svg>
