<svg width="112" height="40" viewBox="0 0 112 40" fill="none" xmlns="http://www.w3.org/2000/svg">
<path d="M8.73293 11.8063L9.5109 11.6606C12.3764 11.0776 14.3733 10.786 15.5015 10.786C16.3183 10.786 16.7268 11.14 16.7268 11.848C16.7268 12.2924 16.5645 12.5908 16.2405 12.7433C16.0199 12.8546 15.644 12.9239 15.1124 12.9516C11.754 13.1738 9.19971 13.5971 7.44926 14.2217C6.76184 15.3185 5.75713 17.366 4.43451 20.3644C3.66931 22.1135 3.07305 23.7307 2.64521 25.2161C2.94333 25.105 3.23507 24.9941 3.52044 24.8829C5.43922 24.1889 6.8527 23.7376 7.76046 23.5294C8.96636 23.2796 10.1008 23.1546 11.1641 23.1546C11.8643 23.1546 12.3828 23.2451 12.7201 23.4253C13.0183 23.5782 13.1675 23.8697 13.1675 24.2998C13.1675 24.7303 12.9857 25.015 12.6229 25.1536C12.4542 25.2092 12.0521 25.244 11.417 25.2576C7.98081 25.4522 4.92082 26.3545 2.23676 27.9646C1.88662 28.1728 1.58818 28.2769 1.34207 28.2769C0.978861 28.2769 0.654652 28.076 0.369606 27.673C0.12342 27.34 0 26.9999 0 26.6528C0 26.3059 0.40845 25.0286 1.22537 22.8214C2.45711 19.4762 4.13617 15.8114 6.26283 11.8271C6.89802 10.6194 8.10383 8.58601 9.88044 5.72618C10.2822 5.05986 10.6712 4.40748 11.0475 3.76882C10.5287 3.63026 10.2694 3.26229 10.2694 2.66529C10.2694 2.22117 10.4767 1.8948 10.8918 1.6866C11.5659 1.35347 12.8626 1.0274 14.7818 0.707912C17.6473 0.236158 20.0785 0 22.0754 0C23.2035 0 23.7675 0.319492 23.7675 0.957769C23.7675 1.40227 23.5731 1.77706 23.1841 2.08222C22.9896 2.23511 22.6784 2.31124 22.2504 2.31124C22.2243 2.31124 22.0754 2.30442 21.8031 2.2904C21.6086 2.2904 21.3947 2.2904 21.1612 2.2904C20.2277 2.2904 18.8789 2.39458 17.1157 2.60277C15.5856 2.7834 14.2694 3.04719 13.1674 3.39402C13.2969 3.60228 13.3619 3.76881 13.3619 3.89373C13.3619 4.12997 13.0571 4.67136 12.4478 5.5179L11.5142 7.05881C10.1786 9.16901 9.2514 10.7516 8.73293 11.8063Z" fill="white"/>
<path d="M28.7467 15.7209C25.8031 16.3456 23.3397 17.0815 21.3558 17.9282C20.1627 19.8022 18.8532 22.0509 17.427 24.6747L16.3961 26.6111C16.2144 26.9582 15.936 27.4581 15.5598 28.1104C15.145 28.8736 14.7107 29.2555 14.2567 29.2555C14.0105 29.2555 13.8029 29.1515 13.6343 28.9433C13.4659 28.763 13.3815 28.5615 13.3815 28.3394C13.3815 27.9509 13.8677 26.8473 14.8402 25.0286C15.372 24.0431 16.1755 22.6479 17.252 20.8433C17.6667 20.1493 17.9974 19.5802 18.2439 19.1358C17.4658 19.372 16.7526 19.6427 16.1044 19.9479C15.7932 20.1008 15.534 20.1769 15.3264 20.1769C15.0672 20.1769 14.8663 20.0521 14.7234 19.8022C14.6198 19.6496 14.5679 19.469 14.5679 19.2608C14.5679 18.789 14.7234 18.4559 15.0346 18.2614C15.5403 17.9282 16.4478 17.5466 17.7576 17.1161C18.7301 16.7829 19.5014 16.4777 20.0721 16.1998C20.3444 15.8391 21.0573 14.7771 22.2115 13.014C22.7042 12.2507 24.1046 10.446 26.4127 7.6002C28.0723 5.51789 29.7839 3.58145 31.5474 1.79068C32.5716 0.735945 33.3563 0.208191 33.9008 0.208191C34.2379 0.208191 34.5296 0.353957 34.7761 0.645489C34.9833 0.909366 35.0873 1.20082 35.0873 1.52C35.0873 1.90881 34.9056 2.58915 34.5427 3.56063C33.9203 5.26805 33.3238 7.0936 32.7533 9.03695C32.2604 10.7584 31.9298 12.077 31.7614 12.9932C31.9948 12.9932 32.1504 12.9864 32.2282 12.9724C32.6041 12.9587 32.9153 12.9516 33.1618 12.9516C33.9136 12.9516 34.2898 13.2571 34.2898 13.8678C34.2898 14.1317 34.2087 14.3919 34.0468 14.6486C33.8844 14.9057 33.6996 15.0618 33.4924 15.1172C33.4146 15.1451 33.2006 15.1588 32.8506 15.1588C32.1115 15.1588 31.5602 15.2076 31.1974 15.3045C30.8862 16.2903 30.3932 18.8099 29.7191 22.8631C29.3691 25.5564 29.2004 27.2081 29.2135 27.8189C29.2135 28.8183 28.9345 29.318 28.3771 29.318C27.9362 29.318 27.5925 29.0751 27.3463 28.5893C27.1646 28.2561 27.074 27.8053 27.074 27.2358C27.074 25.3201 27.3916 22.7382 28.0271 19.4899C28.351 17.852 28.5911 16.5955 28.7467 15.7209ZM29.2913 13.4721C29.408 13.0697 29.7061 11.9937 30.186 10.2446C30.3027 9.78648 30.6008 8.87751 31.0807 7.51683C31.5602 6.11495 31.9428 4.99051 32.2282 4.14365C31.3852 4.74065 30.5293 5.5319 29.6608 6.5174C26.6005 10.0436 24.4416 12.9239 23.1841 15.1587C23.6636 15.0338 24.6944 14.7215 26.2765 14.2217C26.7303 14.0831 27.7353 13.8333 29.2913 13.4721Z" fill="#E92D46"/>
<path d="M35.9041 20.302C35.5151 21.3847 35.2234 22.2593 35.0289 22.9256C34.8344 23.592 34.7371 24.0572 34.7371 24.3207C34.7371 24.6679 34.8927 24.8413 35.2039 24.8413C35.6707 24.8413 36.2736 24.3694 37.0127 23.4253C37.3628 22.9673 37.8813 22.1415 38.5687 20.9474C38.841 20.4757 39.1261 20.2395 39.4245 20.2395C39.7615 20.2395 39.9301 20.4132 39.9301 20.76C39.9301 21.357 39.2883 22.5648 38.0047 24.3832C36.669 26.2851 35.4306 27.2359 34.2897 27.2359C33.7971 27.2359 33.3951 27.014 33.0839 26.5695C32.8636 26.2503 32.7532 25.8615 32.7532 25.4035C32.7532 24.6262 32.9739 23.5503 33.4145 22.176C33.8552 20.8017 34.5101 19.1291 35.3789 17.1577C37.609 12.1467 39.8846 8.01668 42.2058 4.76835C44.0599 2.15868 45.5964 0.853699 46.8154 0.853699C47.2044 0.853699 47.522 1.01348 47.7684 1.33266C48.0277 1.65215 48.1574 2.01973 48.1574 2.43619C48.1574 4.37985 46.5364 7.61416 43.295 12.1395C41.8426 14.1525 40.1053 16.1654 38.0824 18.1781C37.5507 18.7058 36.8246 19.4137 35.9041 20.302ZM37.285 16.9912C39.9818 14.5204 42.3936 11.3971 44.5203 7.62106C45.6223 5.6637 46.1735 4.36591 46.1735 3.72725C46.1735 3.42202 46.0502 3.26911 45.804 3.26911C45.0907 3.26911 43.7939 4.78919 41.914 7.82924C40.3581 10.3279 38.8149 13.382 37.285 16.9912Z" fill="white"/>
<path d="M48.2547 21.3847C47.1005 22.8422 46.1799 23.925 45.4928 24.633C44.1313 26.0213 42.9966 26.7153 42.0891 26.7153C41.6485 26.7153 41.2983 26.5418 41.0388 26.1947C40.8444 25.9171 40.7471 25.57 40.7471 25.1536C40.7471 23.6543 41.577 21.6626 43.2367 19.1775C44.9221 16.6512 46.141 15.3878 46.8932 15.3878C47.1005 15.3878 47.2822 15.4851 47.4378 15.6793C47.5803 15.8323 47.6517 16.0125 47.6517 16.2207C47.6517 16.5262 47.577 16.7933 47.4281 17.0224C47.2789 17.2515 46.8543 17.7615 46.1541 18.5528C45.415 19.372 44.7342 20.2603 44.1119 21.218C43.3986 22.3008 43.0422 23.0921 43.0422 23.5919C43.0422 23.8835 43.1716 24.0291 43.4312 24.0291C43.9496 24.0291 44.9221 23.2727 46.3486 21.7594C47.2433 20.8016 47.9435 19.9968 48.4492 19.344C48.5528 19.2055 49.0065 18.546 49.8106 17.366C50.5367 16.3248 50.984 15.7073 51.1526 15.5128C51.5417 15.027 51.9045 14.7839 52.2418 14.7839C52.4491 14.7839 52.6372 14.8812 52.8059 15.0755C52.9615 15.256 53.0393 15.4643 53.0393 15.7001C53.0393 16.1029 52.7798 16.7761 52.2613 17.72C51.639 18.8723 51.0682 19.9479 50.5498 20.9473C49.7329 22.5023 49.1038 23.8905 48.6632 25.1119C49.4928 24.5986 50.2514 23.9666 50.9388 23.217C52.1057 21.9677 52.8187 21.0379 53.0782 20.4268C53.3244 19.8717 53.5772 19.594 53.8367 19.594C54.1996 19.594 54.3813 19.7886 54.3813 20.1769C54.3813 20.9129 53.7979 22.0094 52.6309 23.4669C51.2305 25.2161 49.5058 26.7016 47.4573 27.9229C46.3681 30.7268 45.3372 33.0521 44.3647 34.8984C42.5493 38.2994 40.676 40 38.7438 40C37.953 40 37.3176 39.6737 36.8377 39.0214C36.4618 38.5217 36.2737 37.8897 36.2737 37.1265C36.2737 34.9609 37.6935 32.7467 40.5332 30.4841C41.3631 29.8177 42.5948 28.9848 44.2286 27.9854C44.8899 27.583 45.4084 27.2566 45.7846 27.0068C46.0179 26.3684 46.3745 25.5216 46.8543 24.4664C47.3858 23.3283 47.8526 22.3008 48.2547 21.3847ZM44.6759 29.5679C43.3014 30.3175 41.8946 31.3863 40.4553 32.7745C39.0033 34.2041 38.277 35.5368 38.277 36.7725C38.277 37.0361 38.3484 37.2582 38.4909 37.4389C38.6854 37.6887 38.9383 37.8136 39.2494 37.8136C40.2219 37.8136 41.2983 36.7237 42.4781 34.5446C42.6726 34.1833 43.2041 32.9829 44.073 30.9422C44.2544 30.5258 44.4553 30.0676 44.6759 29.5679Z" fill="white"/>
<path d="M62.2197 13.7845C63.2826 13.7845 63.8146 14.4788 63.8146 15.8668C63.8146 17.7132 63.0171 20.0521 61.4223 22.8839C59.6845 25.9521 58.0055 27.4857 56.3847 27.4857C55.6329 27.4857 55.0816 27.1108 54.7315 26.3613C54.5501 25.9866 54.4592 25.5355 54.4592 25.0078C54.4592 23.231 55.0299 21.3014 56.1708 19.2192C57.2339 17.2899 58.4853 15.7906 59.9246 14.7216C60.7673 14.0968 61.5322 13.7845 62.2197 13.7845ZM60.1969 21.6554C59.8726 21.3779 59.7107 21.1628 59.7107 21.0099C59.7107 20.899 59.9179 20.5935 60.3331 20.0938C61.5 18.6918 62.0834 17.5606 62.0834 16.6997C62.0834 16.5887 62.0509 16.4778 61.9863 16.3665C61.8823 16.1583 61.7204 16.0542 61.5 16.0542C61.0849 16.0542 60.4756 16.4846 59.6717 17.3452C58.6343 18.456 57.8435 19.6011 57.2989 20.7809C56.6634 22.1275 56.3458 23.2452 56.3458 24.1334C56.3458 24.3695 56.4042 24.5778 56.5209 24.758C56.6892 25.0078 56.9032 25.1328 57.1628 25.1328C57.7851 25.1328 58.4528 24.6331 59.166 23.6335C59.4772 23.2171 59.7301 22.787 59.9246 22.3425C60.1191 21.8984 60.2097 21.6694 60.1969 21.6554Z" fill="white"/>
<path d="M72.8782 13.3889C73.682 13.3889 74.2848 13.5418 74.6868 13.847C75.0886 14.1525 75.2898 14.6174 75.2898 15.2421C75.2898 16.0613 75.0045 16.8526 74.4341 17.6159C73.8894 18.3379 73.0727 18.9208 71.9834 19.3649C71.3869 19.6011 70.8876 19.7189 70.4859 19.7189C69.9412 19.7189 69.669 19.4622 69.669 18.9485C69.669 18.6017 69.8245 18.3379 70.1357 18.1573C70.2135 18.1156 70.6542 17.9978 71.4583 17.8032C71.9378 17.6923 72.3788 17.4494 72.7809 17.0745C73.1309 16.7553 73.3059 16.4082 73.3059 16.0334C73.3059 15.7418 73.2282 15.5268 73.0727 15.3879C72.917 15.2493 72.6837 15.1796 72.3724 15.1796C71.6203 15.1796 70.7903 15.5059 69.8829 16.1583C68.8326 16.8943 68.3075 17.7688 68.3075 18.782C68.3075 19.5039 68.6509 20.4062 69.3382 21.4888C70.1033 22.6689 70.4859 23.6685 70.4859 24.4873C70.4859 25.709 69.9801 26.6668 68.9687 27.3609C68.3463 27.7912 67.6395 28.0063 66.8487 28.0063C65.6039 28.0063 64.6576 27.5274 64.009 26.5695C63.5554 25.8896 63.3284 25.0843 63.3284 24.1543C63.3284 23.0715 63.5879 22.1624 64.1063 21.4265C64.4436 20.9407 64.7937 20.6976 65.1567 20.6976C65.4806 20.6976 65.6428 20.8365 65.6428 21.1141C65.6428 21.2253 65.5844 21.392 65.4678 21.6138C65.1694 22.2108 65.0204 22.912 65.0204 23.7169C65.0204 24.3972 65.2471 24.9734 65.7012 25.4452C66.103 25.8616 66.5634 26.0698 67.0821 26.0698C67.5878 26.0698 67.9831 25.8897 68.2686 25.5284C68.502 25.2233 68.6186 24.8344 68.6186 24.3624C68.6186 23.7794 68.3075 23.0229 67.6851 22.0927C66.8292 20.8157 66.4013 19.6565 66.4013 18.6154C66.4013 17.2274 67.108 15.9989 68.5214 14.9298C69.8957 13.9026 71.3479 13.3889 72.8782 13.3889Z" fill="white"/>
<path d="M78.8102 18.6987C79.7696 17.6298 80.729 16.7345 81.6887 16.0125C82.9205 15.0964 83.8021 14.6382 84.3339 14.6382C84.5543 14.6382 84.7682 14.7355 84.9758 14.9298C85.2091 15.152 85.3259 15.4087 85.3259 15.7002C85.3259 16.075 85.0468 16.658 84.4895 17.4493C83.4132 18.9765 82.5963 20.3645 82.0388 21.6138C81.5459 22.6966 81.2997 23.4325 81.2997 23.821C81.2997 24.1957 81.4681 24.3832 81.8055 24.3832C82.5056 24.3832 83.6854 23.0506 85.3453 20.3853C85.6823 19.8439 85.9872 19.5732 86.2594 19.5732C86.5318 19.5732 86.6679 19.7398 86.6679 20.0729C86.6679 20.6143 86.175 21.6486 85.1898 23.1754C84.3339 24.5081 83.4392 25.5283 82.5056 26.2364C81.8443 26.7225 81.2477 26.9652 80.7162 26.9652C80.1586 26.9652 79.7565 26.7084 79.5104 26.1947C79.3548 25.8755 79.2769 25.5216 79.2769 25.1328C79.2769 23.8974 79.6854 22.4884 80.5023 20.9059C80.6968 20.531 81.2803 19.4622 82.2527 17.6992C79.6077 19.1291 77.3709 22.2177 75.5426 26.9652C75.3739 27.5066 75.1147 27.7773 74.7646 27.7773C74.5184 27.7773 74.3174 27.6872 74.1617 27.5066C74.0061 27.3123 73.9282 27.0764 73.9282 26.7987C73.9282 26.3405 74.3434 25.0427 75.173 22.9048C76.7159 18.9349 78.1552 15.5752 79.4908 12.8267C80.8263 10.0504 82.3111 7.17008 83.9449 4.18532C84.3339 3.4637 84.6383 2.97761 84.859 2.72775C85.0793 2.4779 85.3127 2.35297 85.5593 2.35297C85.7925 2.35297 85.9934 2.48502 86.1622 2.74859C86.2916 2.94315 86.3567 3.16505 86.3567 3.41491C86.3567 3.80371 86.1491 4.32426 85.7343 4.97658C84.3339 7.29502 82.9399 9.84226 81.5526 12.6185C80.0613 15.5893 79.1472 17.6159 78.8102 18.6987Z" fill="white"/>
<path d="M91.6276 14.7423C91.8479 14.7423 92.0293 14.8328 92.1721 15.013C92.2758 15.1659 92.3277 15.3185 92.3277 15.4711C92.3277 15.721 92.1396 16.1374 91.7637 16.7205C90.415 18.9557 89.4556 20.7948 88.8852 22.2385C88.2755 23.724 87.7377 25.2509 87.2708 26.8194C87.0635 27.5137 86.7393 27.8606 86.2983 27.8606C86.0391 27.8606 85.8315 27.7495 85.6759 27.5274C85.5334 27.3471 85.462 27.1525 85.462 26.9443C85.462 26.5279 85.8771 25.14 86.7068 22.7799C87.3554 20.9198 88.4052 18.8651 89.8576 16.6163C90.3245 15.8808 90.6745 15.3879 90.908 15.1379C91.1412 14.8744 91.3811 14.7423 91.6276 14.7423ZM95.323 7.01715C95.9064 7.01715 96.1983 7.33664 96.1983 7.975C96.1983 8.55806 95.9128 9.20354 95.3424 9.91154C94.7979 10.5918 94.2728 10.9318 93.767 10.9318C93.5205 10.9318 93.3196 10.8349 93.164 10.6403C93.0085 10.4601 92.9306 10.2378 92.9306 9.97397C92.9306 9.30765 93.2741 8.59966 93.9615 7.85009C94.4673 7.29497 94.9209 7.01715 95.323 7.01715Z" fill="white"/>
<path d="M95.3814 20.0729C95.5497 19.9063 95.712 19.7398 95.8675 19.5732C98.5774 16.7413 100.393 15.3254 101.314 15.3254C101.819 15.3254 102.072 15.624 102.072 16.2207C102.072 16.6372 101.845 17.1301 101.391 17.6992C98.9145 20.7948 97.6764 23.5226 97.6764 25.8824C97.6764 26.6461 97.8709 27.3748 98.2598 28.0688C98.4413 28.3882 98.5322 28.638 98.5322 28.8184C98.5322 28.9849 98.4543 29.1443 98.2988 29.2973C98.1301 29.4915 97.9293 29.5888 97.6958 29.5888C97.164 29.5888 96.7167 29.2277 96.3538 28.506C96.0036 27.8261 95.8286 27 95.8286 26.0282C95.8286 24.1542 96.4899 22.0791 97.8125 19.8023C96.0489 21.0099 94.4087 23.1479 92.8917 26.2156C92.5027 26.9516 92.0879 27.3192 91.6469 27.3192C91.4265 27.3192 91.2451 27.2359 91.1023 27.0694C90.9209 26.8751 90.8301 26.6252 90.8301 26.3196C90.8301 25.57 91.6274 23.6059 93.2223 20.4268C94.0782 18.7059 94.7523 17.4564 95.2451 16.6789C95.7378 15.9156 96.1594 15.5336 96.5094 15.5336C96.6777 15.5336 96.84 15.6169 96.9956 15.7835C97.177 15.9781 97.2679 16.1999 97.2679 16.4499C97.2679 16.7553 97.0798 17.1926 96.7039 17.7616C96.1594 18.6086 95.7184 19.379 95.3814 20.0729Z" fill="white"/>
<path d="M107.751 23.7793C107.323 24.5845 106.902 25.2648 106.487 25.8199C105.67 26.9027 104.86 27.444 104.056 27.444C103.356 27.444 102.811 27.0902 102.422 26.3821C102.176 25.924 102.053 25.3827 102.053 24.7579C102.053 23.2171 102.506 21.5168 103.414 19.6564C104.425 17.5881 105.644 15.9988 107.07 14.8881C108.004 14.1665 108.905 13.8053 109.774 13.8053C110.319 13.8053 110.772 13.9859 111.136 14.3467C111.447 14.6662 111.602 15.027 111.602 15.4295C111.602 15.735 111.492 16.1583 111.272 16.6997C111.466 16.9912 111.564 17.2482 111.564 17.47C111.564 17.7615 111.382 18.2406 111.019 18.9068C110.643 19.5872 110.267 20.4893 109.891 21.6138C109.489 22.8078 109.288 23.7657 109.288 24.4872C109.288 25.0703 109.45 25.5492 109.774 25.924C109.865 26.0213 110.131 26.1811 110.572 26.4029C110.895 26.5695 111.058 26.861 111.058 27.2775C111.058 27.5413 110.967 27.7564 110.785 27.9229C110.591 28.1035 110.364 28.1936 110.105 28.1936C109.404 28.1936 108.801 27.8606 108.296 27.1942C107.881 26.6528 107.673 25.9727 107.673 25.1536C107.673 24.876 107.699 24.418 107.751 23.7793ZM110.182 16.9287C110.027 16.6235 109.858 16.3977 109.677 16.2519C109.495 16.1062 109.301 16.0333 109.093 16.0333C108.108 16.0333 107.038 16.9566 105.884 18.8028C104.613 20.8433 103.978 22.5715 103.978 23.9875C103.978 24.3346 104.039 24.5986 104.163 24.7787C104.286 24.9594 104.471 25.0494 104.717 25.0494C105.34 25.0494 106.065 24.3415 106.895 22.9255C107.362 22.1482 107.939 21.0031 108.626 19.4899C109.08 18.5043 109.411 17.8521 109.618 17.5325C109.722 17.366 109.91 17.1649 110.182 16.9287Z" fill="white"/>
</svg>
